<?xml version="1.0" encoding="UTF-8"?>
<svg xmlns="http://www.w3.org/2000/svg" xmlns:xlink="http://www.w3.org/1999/xlink" viewBox="0 0 1839.77 574.56">
  <defs>
    <style>
      .cls-1 {
        stroke: url(#Degradado_sin_nombre_1025);
      }

      .cls-1, .cls-2, .cls-3, .cls-4, .cls-5, .cls-6, .cls-7, .cls-8 {
        stroke-miterlimit: 10;
      }

      .cls-1, .cls-2, .cls-3, .cls-4, .cls-5, .cls-6, .cls-7, .cls-8, .cls-9 {
        fill: #475569;
      }

      .cls-10 {
        fill: url(#Degradado_sin_nombre_1024-3);
      }

      .cls-10, .cls-11, .cls-12, .cls-13, .cls-14, .cls-9, .cls-15, .cls-16, .cls-17, .cls-18 {
        stroke-width: 0px;
      }

      .cls-2 {
        stroke: url(#Degradado_sin_nombre_1025-5);
      }

      .cls-3 {
        stroke: url(#Degradado_sin_nombre_1025-7);
      }

      .cls-4 {
        stroke: url(#Degradado_sin_nombre_1025-6);
      }

      .cls-11 {
        fill: url(#Degradado_sin_nombre_995-6);
      }

      .cls-5 {
        stroke: url(#Degradado_sin_nombre_1025-3);
      }

      .cls-12 {
        fill: url(#Degradado_sin_nombre_1024);
      }

      .cls-13 {
        fill: url(#Degradado_sin_nombre_995);
      }

      .cls-6 {
        stroke: url(#Degradado_sin_nombre_1025-4);
      }

      .cls-7 {
        stroke: url(#Degradado_sin_nombre_1025-2);
      }

      .cls-8 {
        stroke: url(#Degradado_sin_nombre_1025-8);
      }

      .cls-14 {
        fill: url(#Degradado_sin_nombre_995-5);
      }

      .cls-15 {
        fill: url(#Degradado_sin_nombre_995-3);
      }

      .cls-16 {
        fill: url(#Degradado_sin_nombre_995-2);
      }

      .cls-17 {
        fill: url(#Degradado_sin_nombre_1024-2);
      }

      .cls-18 {
        fill: url(#Degradado_sin_nombre_995-4);
      }
    </style>
    <linearGradient id="Degradado_sin_nombre_995" data-name="Degradado sin nombre 995" x1="439.56" y1="-222.49" x2="901.83" y2="-222.49" gradientTransform="translate(-29.03 830.11) rotate(-50.76)" gradientUnits="userSpaceOnUse">
      <stop offset="0" stop-color="#d3dd1b"/>
      <stop offset=".5" stop-color="#e7da14"/>
      <stop offset="1" stop-color="#f8d90f"/>
    </linearGradient>
    <linearGradient id="Degradado_sin_nombre_995-2" data-name="Degradado sin nombre 995" x1="349.75" y1="3.03" x2="812.18" y2="3.03" xlink:href="#Degradado_sin_nombre_995"/>
    <linearGradient id="Degradado_sin_nombre_995-3" data-name="Degradado sin nombre 995" x1="645.6" y1="-118.16" x2="645.96" y2="-118.16" xlink:href="#Degradado_sin_nombre_995"/>
    <linearGradient id="Degradado_sin_nombre_995-4" data-name="Degradado sin nombre 995" x1="645.6" y1="-100.9" x2="645.96" y2="-100.9" xlink:href="#Degradado_sin_nombre_995"/>
    <linearGradient id="Degradado_sin_nombre_995-5" data-name="Degradado sin nombre 995" x1="645.6" y1="-160.55" x2="645.96" y2="-160.55" xlink:href="#Degradado_sin_nombre_995"/>
    <linearGradient id="Degradado_sin_nombre_995-6" data-name="Degradado sin nombre 995" x1="645.6" y1="-58.39" x2="645.96" y2="-58.39" xlink:href="#Degradado_sin_nombre_995"/>
    <linearGradient id="Degradado_sin_nombre_1024" data-name="Degradado sin nombre 1024" x1="5.65" y1="145.52" x2="488.82" y2="145.52" gradientUnits="userSpaceOnUse">
      <stop offset="0" stop-color="#0191ba"/>
      <stop offset="1" stop-color="#35bbca"/>
    </linearGradient>
    <linearGradient id="Degradado_sin_nombre_1024-2" data-name="Degradado sin nombre 1024" x1="356.9" y1="105.84" x2="466.45" y2="105.84" xlink:href="#Degradado_sin_nombre_1024"/>
    <linearGradient id="Degradado_sin_nombre_1024-3" data-name="Degradado sin nombre 1024" x1="329.44" y1="96.97" x2="396.9" y2="96.97" xlink:href="#Degradado_sin_nombre_1024"/>
    <radialGradient id="Degradado_sin_nombre_1025" data-name="Degradado sin nombre 1025" cx="692.07" cy="226.53" fx="692.07" fy="226.53" r="89.7" gradientUnits="userSpaceOnUse">
      <stop offset="0" stop-color="#a3e635"/>
      <stop offset="0" stop-color="#96d23b"/>
      <stop offset="0" stop-color="#6c8f54"/>
      <stop offset="0" stop-color="#516563"/>
      <stop offset="0" stop-color="#475569"/>
    </radialGradient>
    <radialGradient id="Degradado_sin_nombre_1025-2" data-name="Degradado sin nombre 1025" cx="832.8" fx="832.8" r="76.19" xlink:href="#Degradado_sin_nombre_1025"/>
    <radialGradient id="Degradado_sin_nombre_1025-3" data-name="Degradado sin nombre 1025" cx="965.52" fx="965.52" r="83.23" xlink:href="#Degradado_sin_nombre_1025"/>
    <radialGradient id="Degradado_sin_nombre_1025-4" data-name="Degradado sin nombre 1025" cx="1122.27" cy="226.23" fx="1122.27" fy="226.23" r="90.56" xlink:href="#Degradado_sin_nombre_1025"/>
    <radialGradient id="Degradado_sin_nombre_1025-5" data-name="Degradado sin nombre 1025" cx="1293.46" fx="1293.46" r="84.33" xlink:href="#Degradado_sin_nombre_1025"/>
    <radialGradient id="Degradado_sin_nombre_1025-6" data-name="Degradado sin nombre 1025" cx="1444.31" fx="1444.31" r="89.7" xlink:href="#Degradado_sin_nombre_1025"/>
    <radialGradient id="Degradado_sin_nombre_1025-7" data-name="Degradado sin nombre 1025" cx="1610.26" fx="1610.26" r="84.57" xlink:href="#Degradado_sin_nombre_1025"/>
    <radialGradient id="Degradado_sin_nombre_1025-8" data-name="Degradado sin nombre 1025" cx="1761.38" fx="1761.38" r="89.7" xlink:href="#Degradado_sin_nombre_1025"/>
  </defs>
  <g id="Capa_1" data-name="Capa 1">
    <g>
      <path class="cls-13" d="m5.88,291.04c-.03-8.5-.52-17.02.03-25.48.71-10.91,1.64-21.88,3.59-32.62,2.8-15.41,5.75-30.89,10.25-45.85,3.36-11.18,9.11-21.67,14.11-32.32,9.2-19.63,20.72-37.91,34.9-54.25,10.08-11.61,21.13-22.44,32.35-32.98,14.8-13.9,31.71-25.04,49.58-34.57,14.96-7.97,30.46-14.75,46.71-19.88,18.89-5.96,38.13-10.09,57.78-11.98,18.78-1.8,37.54-1.24,56.42.44,19.12,1.7,37.54,6.16,55.68,11.55,12.91,3.83,25.3,9.81,37.43,15.81,11.41,5.64,22.5,12.09,33.15,19.08,8.36,5.49,16.01,12.13,23.66,18.63,6.47,5.5,12.96,11.13,18.53,17.5,3.67,4.2,6.33,9.57,8.37,14.83,1.94,4.98-3.4,9.13-9.14,7.95-13.36-2.75-25.01-9.65-37.17-15.27-14.08-6.51-28.05-13.28-42-20.07-19.81-9.65-40.6-16.48-62.04-21.22-20.11-4.44-40.46-4.42-60.71-.85-9.04,1.59-18.04,3.7-26.83,6.31-14.99,4.44-28.84,11.21-41.62,20.46-16.45,11.9-28.68,26.97-36.75,45.46-3.13,7.16-.08,22.07,9.45,25.85,2.83,1.12,6.93,1.22,9.67.02,14.08-6.16,28.24-12.28,41.73-19.59,16.15-8.74,31.61-18.8,49.6-23.57,6.83-1.81,13.7-2.99,20.84-.65,7.6,2.49,11.73,10.52,9.28,18.18-2.65,8.26-8.03,14.62-13.41,21.05-18.55,22.19-41.34,38.63-67.86,50.06-24.25,10.45-49.89,15.73-75.63,20.73-17.65,3.43-35.47,6.18-52.86,10.59-19.83,5.03-38.89,12.26-56.09,23.97-16.62,11.31-29.45,25.85-41.01,42.69Z"/>
      <path class="cls-16" d="m557.93,260.86c.1,7.02.61,14.07.19,21.06-.67,11.31-1.16,22.72-3.17,33.83-3.16,17.39-6.18,35-11.77,51.68-5.13,15.29-13.22,29.65-20.68,44.07-7.42,14.36-16.97,27.39-27.27,39.88-13.87,16.82-29.13,32.28-46.94,44.81-14.27,10.04-29.04,19.63-44.51,27.62-12.7,6.56-26.67,10.73-40.24,15.51-18.79,6.61-38.28,10.57-58.1,11.48-17.69.81-35.52.64-53.18-.65-17.99-1.32-35.71-5.16-52.9-10.94-13.81-4.64-27.67-9.22-40.35-16.58-13.08-7.6-26.69-14.49-38.96-23.24-14.61-10.41-28.67-21.82-39.73-36.25-2.11-2.75-3.76-6.11-4.66-9.45-1.53-5.67,2.52-9.92,8.33-8.41,7.45,1.94,14.83,4.42,21.91,7.45,9.06,3.88,17.75,8.6,26.66,12.83,14.76,7.01,29.44,14.2,44.39,20.76,8.19,3.59,16.83,6.15,25.34,8.96,6.44,2.13,12.87,4.56,19.51,5.7,10.25,1.77,20.65,2.88,31.03,3.66,14.23,1.07,28.26-1.04,42.2-3.77,24.19-4.74,46.44-13.88,65.72-29.45,11.92-9.62,20.94-21.65,28.28-35.14,3.3-6.05,4.49-12.04,3.27-18.49-2.27-11.96-10.14-16.72-22.43-12.16-12.37,4.59-24.39,10.32-36.08,16.46-18.27,9.58-35.36,21.69-56,25.96-5.05,1.05-10.65,1.16-15.7.19-10.84-2.08-14.91-12.62-7.88-24.73,10.01-17.24,24.48-30.44,39.93-42.64,14.72-11.63,31.27-20.28,48.88-26.11,18.21-6.03,37.07-10.2,55.76-14.68,14.72-3.53,29.65-6.22,44.45-9.45,10.65-2.32,21.3-4.66,31.83-7.45,12.65-3.35,24.5-8.85,35.67-15.57,14.78-8.89,27.59-20.18,37.82-34.19,2.96-4.06,5.59-8.35,8.38-12.54.34,0,.68,0,1.02,0Z"/>
      <path class="cls-15" d="m357.68,59.16c8.86,3.56,17.79,6.96,26.56,10.72,11.2,4.8,22.5,9.48,33.33,15.03,5.27,2.7,10.24,6.7,14.19,11.13,9.36,10.51,18.4,21.35,26.8,32.63,3.62,4.86,5.45,11.08,7.8,16.81.39.94-.43,2.87-1.29,3.75-4.24,4.32-9.73,3.37-14.86,2.72-10.76-1.35-19.75-6.78-28.05-13.36-14.42-11.42-26.08-25.49-37.25-39.94-8.99-11.63-17.57-23.58-26.31-35.41-.68-.92-1.13-2.02-1.69-3.03.26-.35.51-.7.77-1.05Z"/>
      <path class="cls-18" d="m207.44,492.84c-4.86-1.83-9-3.21-12.99-4.93-16.48-7.1-33.37-13.44-49.16-21.83-7.9-4.2-14.23-11.81-20.44-18.63-6.84-7.51-12.96-15.72-18.91-23.98-2.98-4.15-5.14-8.96-7.19-13.69-2.49-5.74-.04-9.69,6.35-10.09,11.38-.73,21.39,3.14,30.82,9.4,13.9,9.22,24.63,21.61,35.01,34.3,10.51,12.85,20.44,26.18,30.48,39.41,2.18,2.87,3.75,6.21,6.03,10.05Z"/>
      <path class="cls-14" d="m372.88,133.26c-12.84-11.27-21.15-22.59-27.32-35.43-4.61-9.61-8.91-19.37-13-29.22-1.55-3.72-2.24-7.83-3.04-11.81-.29-1.46.23-3.09.39-4.64,1.94.36,4.1.29,5.79,1.14,10.54,5.32,15.7,15.78,22.43,24.57,9.55,12.46,18.31,25.54,27,38.63,4.21,6.34,7.55,13.27,11.17,19.99,1.25,2.32.57,4.61-2.05,4.98-2.74.39-5.99.55-8.36-.59-5.32-2.55-10.23-5.96-13-7.63Z"/>
      <path class="cls-11" d="m235.45,499.38c-12.26.07-17.31-8.75-23.03-16.38-8.85-11.81-17.76-23.6-25.9-35.89-6.51-9.82-12.04-20.29-17.74-30.61-2.55-4.61-.44-7.83,4.61-6.38,5.62,1.61,11.25,4.25,16,7.66,13.69,9.82,22.72,23.58,29.99,38.48,4.5,9.23,8.63,18.67,12.4,28.22,1.83,4.64,2.45,9.75,3.68,14.91Z"/>
    </g>
  </g>
  <g id="Capa_1_copia" data-name="Capa 1 copia">
    <g>
      <path class="cls-12" d="m5.88,291.04c-.03-8.5-.52-17.02.03-25.48.71-10.91,1.64-21.88,3.59-32.62,2.8-15.41,5.75-30.89,10.25-45.85,3.36-11.18,9.11-21.67,14.11-32.32,9.2-19.63,20.72-37.91,34.9-54.25,10.08-11.61,21.13-22.44,32.35-32.98,14.8-13.9,31.71-25.04,49.58-34.57,14.96-7.97,30.46-14.75,46.71-19.88,18.89-5.96,38.13-10.09,57.78-11.98,18.78-1.8,37.54-1.24,56.42.44,19.12,1.7,37.54,6.16,55.68,11.55,12.91,3.83,25.3,9.81,37.43,15.81,11.41,5.64,22.5,12.09,33.15,19.08,8.36,5.49,16.01,12.13,23.66,18.63,6.47,5.5,12.96,11.13,18.53,17.5,3.67,4.2,6.33,9.57,8.37,14.83,1.94,4.98-3.4,9.13-9.14,7.95-13.36-2.75-25.01-9.65-37.17-15.27-14.08-6.51-28.05-13.28-42-20.07-19.81-9.65-40.6-16.48-62.04-21.22-20.11-4.44-40.46-4.42-60.71-.85-9.04,1.59-18.04,3.7-26.83,6.31-14.99,4.44-28.84,11.21-41.62,20.46-16.45,11.9-28.68,26.97-36.75,45.46-3.13,7.16-.08,22.07,9.45,25.85,2.83,1.12,6.93,1.22,9.67.02,14.08-6.16,28.24-12.28,41.73-19.59,16.15-8.74,31.61-18.8,49.6-23.57,6.83-1.81,13.7-2.99,20.84-.65,7.6,2.49,11.73,10.52,9.28,18.18-2.65,8.26-8.03,14.62-13.41,21.05-18.55,22.19-41.34,38.63-67.86,50.06-24.25,10.45-49.89,15.73-75.63,20.73-17.65,3.43-35.47,6.18-52.86,10.59-19.83,5.03-38.89,12.26-56.09,23.97-16.62,11.31-29.45,25.85-41.01,42.69Z"/>
      <path class="cls-17" d="m357.68,59.16c8.86,3.56,17.79,6.96,26.56,10.72,11.2,4.8,22.5,9.48,33.33,15.03,5.27,2.7,10.24,6.7,14.19,11.13,9.36,10.51,18.4,21.35,26.8,32.63,3.62,4.86,5.45,11.08,7.8,16.81.39.94-.43,2.87-1.29,3.75-4.24,4.32-9.73,3.37-14.86,2.72-10.76-1.35-19.75-6.78-28.05-13.36-14.42-11.42-26.08-25.49-37.25-39.94-8.99-11.63-17.57-23.58-26.31-35.41-.68-.92-1.13-2.02-1.69-3.03.26-.35.51-.7.77-1.05Z"/>
      <path class="cls-10" d="m372.88,133.26c-12.84-11.27-21.15-22.59-27.32-35.43-4.61-9.61-8.91-19.37-13-29.22-1.55-3.72-2.24-7.83-3.04-11.81-.29-1.46.23-3.09.39-4.64,1.94.36,4.1.29,5.79,1.14,10.54,5.32,15.7,15.78,22.43,24.57,9.55,12.46,18.31,25.54,27,38.63,4.21,6.34,7.55,13.27,11.17,19.99,1.25,2.32.57,4.61-2.05,4.98-2.74.39-5.99.55-8.36-.59-5.32-2.55-10.23-5.96-13-7.63Z"/>
    </g>
  </g>
  <g id="Capa_1_copia_2" data-name="Capa 1 copia 2">
    <g>
      <path class="cls-9" d="m612.25,442.98l.94-18.35,1.1-35.33.21-10.44c.03-2.57.05-5.19.05-7.86,7.35.04,14.37.05,21.05.05l18.36-.05c-.14,1.41-.21,2.65-.21,3.74-3.02-.27-6.43-.43-10.2-.47-3.78-.04-7.22-.06-10.31-.06h-14.55l-.95,30.38,11.23.16c9.56,0,16.66-.05,21.3-.16-.14,1.02-.23,2.23-.26,3.64l-9.38-.11c-3.69-.07-6.61-.11-8.75-.11-4.53,0-9.31.07-14.34.21-.43,15.08-.64,26.67-.64,34.75-.88-.03-1.65-.05-2.32-.05s-1.44.02-2.32.05Z"/>
      <path class="cls-9" d="m665.98,442.98l1.16-21.15,1.05-31.69.21-10.97c.03-2.92.05-5.64.05-8.17.91.04,1.71.05,2.38.05.7,0,1.49-.02,2.37-.05l-.97,19.09-1.24,39.29-.26,13.61c-.88-.03-1.67-.05-2.37-.05s-1.5.02-2.38.05Z"/>
      <path class="cls-9" d="m684.6,440.82c0-1.37-.11-2.95-.32-4.75,6.65,3.16,12.73,4.75,18.22,4.75,3.13,0,5.97-.51,8.5-1.53,2.53-1.02,4.5-2.54,5.89-4.56s2.09-4.33,2.09-6.93c0-1.3-.22-2.53-.66-3.69-.44-1.16-1.15-2.35-2.15-3.58s-2.43-2.8-4.31-4.72c-1.88-1.91-5.24-4.89-10.1-8.94l-4.17-3.48c-1.44-1.27-2.83-2.59-4.17-3.96-1.34-1.37-2.45-2.65-3.33-3.83-.88-1.18-1.54-2.23-1.98-3.17-.44-.93-.78-1.96-1.03-3.09-.25-1.13-.37-2.29-.37-3.48,0-2.85.77-5.51,2.32-7.97,1.55-2.46,3.85-4.41,6.91-5.86,3.06-1.44,6.94-2.16,11.65-2.16,3.27,0,7.44.47,12.5,1.42.03,1.34.19,2.81.47,4.43-3.24-1.02-5.94-1.7-8.08-2.06s-4.19-.53-6.13-.53c-3.49,0-6.36.57-8.61,1.72-2.26,1.14-4,2.67-5.23,4.59-1.23,1.92-1.85,3.93-1.85,6.04,0,1.13.17,2.23.53,3.3.35,1.07.93,2.16,1.73,3.27s1.87,2.32,3.2,3.64c1.33,1.32,2.91,2.82,4.73,4.51,1.83,1.69,4.26,3.85,7.29,6.49,3.03,2.64,5.17,4.51,6.42,5.62,1.25,1.11,2.44,2.3,3.57,3.56s2.04,2.52,2.75,3.77,1.22,2.54,1.56,3.88c.34,1.34.5,2.74.5,4.22,0,3.31-.84,6.21-2.51,8.71-1.67,2.5-4.13,4.39-7.38,5.67-3.25,1.28-6.9,1.93-10.94,1.93-2.6,0-5.13-.2-7.59-.61-2.46-.4-5.77-1.29-9.91-2.66Z"/>
      <path class="cls-9" d="m736.17,442.98l1.16-21.15,1.05-31.69.21-10.97c.03-2.92.05-5.64.05-8.17.91.04,1.71.05,2.38.05.7,0,1.49-.02,2.37-.05l-.97,19.09-1.24,39.29-.26,13.61c-.88-.03-1.67-.05-2.37-.05s-1.5.02-2.38.05Z"/>
      <path class="cls-9" d="m794.6,369.89c5.03,0,9.78.76,14.27,2.27,4.48,1.51,8.39,3.97,11.73,7.38,3.34,3.41,5.72,7.32,7.15,11.73,1.42,4.41,2.14,9.1,2.14,14.05,0,5.45-.81,10.69-2.43,15.72-1.62,5.03-4.06,9.25-7.33,12.66-3.27,3.41-7.36,5.99-12.26,7.75-4.9,1.76-10.05,2.64-15.43,2.64s-10.13-.82-14.87-2.45c-4.75-1.64-8.72-4.04-11.92-7.23-3.2-3.18-5.55-7.01-7.04-11.5-1.5-4.48-2.24-9.18-2.24-14.11,0-5.52.91-10.87,2.74-16.06,1.83-5.19,4.47-9.48,7.94-12.89s7.6-5.92,12.42-7.54c4.82-1.62,9.86-2.42,15.13-2.42Zm-.18,3.27c-4.86,0-9.43.75-13.72,2.24-4.29,1.5-8.02,3.92-11.19,7.28-3.17,3.36-5.49,7.31-6.97,11.87-1.48,4.55-2.22,9.31-2.22,14.26,0,4.68.77,9.16,2.32,13.45,1.55,4.29,3.82,7.84,6.81,10.65,2.99,2.81,6.5,4.83,10.53,6.06,4.03,1.23,8.28,1.85,12.75,1.85,4.71,0,9.17-.69,13.38-2.06,4.2-1.37,7.85-3.66,10.92-6.85,3.08-3.2,5.33-7.04,6.76-11.52,1.43-4.48,2.14-9.22,2.14-14.21s-.66-9.26-1.98-13.55c-1.32-4.29-3.44-7.94-6.36-10.94-2.92-3.01-6.39-5.18-10.4-6.51-4.01-1.34-8.27-2-12.77-2Z"/>
      <path class="cls-9" d="m895.7,437.39c-.28,1.23-.51,2.67-.68,4.32-3.59.88-6.95,1.49-10.1,1.85-3.15.35-5.97.53-8.46.53-5.13,0-10-.83-14.61-2.48-4.61-1.65-8.56-4.1-11.87-7.36-3.31-3.25-5.73-7.11-7.28-11.58-1.55-4.46-2.32-9.16-2.32-14.08,0-5.49.9-10.79,2.72-15.93,1.81-5.13,4.46-9.39,7.94-12.79,3.48-3.39,7.65-5.91,12.52-7.54,4.87-1.64,10.06-2.45,15.58-2.45,1.86,0,3.88.09,6.04.26,2.16.18,3.94.37,5.33.58,1.39.21,3.24.56,5.56,1.05.07,1.44.23,2.95.47,4.53-3.87-1.27-7.21-2.11-10-2.53-2.8-.42-5.5-.63-8.1-.63-4.54,0-8.9.7-13.09,2.11-4.19,1.41-7.88,3.67-11.08,6.78-3.2,3.11-5.66,6.96-7.36,11.55-1.71,4.59-2.56,9.33-2.56,14.21s.7,9.2,2.11,13.47c1.41,4.27,3.55,7.85,6.44,10.73,2.88,2.88,6.32,5.07,10.29,6.57,3.98,1.5,8.32,2.24,13.04,2.24,5.81,0,12.3-1.14,19.48-3.43Z"/>
      <path class="cls-9" d="m908.56,442.98c.67-9.53,1.28-21.82,1.82-36.89.54-15.06.82-26.76.82-35.1,7.8.04,15.13.05,21.99.05l19.25-.05c-.14,1.41-.21,2.65-.21,3.74l-4.22-.35c-1.09-.12-2.99-.18-5.7-.2-2.71-.02-5.36-.03-7.96-.03-8.33,0-14.66.02-18.98.05l-1.06,30.27c5.31.1,10.18.16,14.61.16,5.27,0,11.78-.05,19.52-.16-.14,1.05-.23,2.21-.26,3.48l-19.9-.16c-2.32,0-7.04.05-14.15.16l-1.06,31.69,15.13.05c5.94,0,10.06-.03,12.36-.08s5.44-.18,9.41-.4c-.18,1.41-.26,2.65-.26,3.74-8.44-.03-14.61-.05-18.51-.05l-22.62.05Z"/>
      <path class="cls-9" d="m965.15,442.98l1.21-20.78,1.47-42.72.16-8.49c.85.04,1.91.05,3.18.05s2.39-.02,3.24-.05c1.76,2.85,3.21,5.15,4.37,6.91s3.58,5.26,7.27,10.49l27.04,39.02c2.74,3.97,5.53,7.91,8.38,11.81l2.26-60.07.16-8.17c.91.04,1.64.05,2.16.05.56,0,1.3-.02,2.22-.05l-1.01,16.56-1.7,45.04-.21,10.39c-1.23-.03-2.29-.05-3.2-.05s-1.96.02-3.15.05l-9.65-14.34-33.43-48.1-3.9-5.33c-.11,1.79-.19,3.64-.26,5.54l-1.89,49.36-.26,12.87c-.91-.03-1.65-.05-2.22-.05s-1.3.02-2.22.05Z"/>
      <path class="cls-9" d="m1057.65,442.98l.79-13.14,2.06-55.63c-8.68,0-16.24.16-22.67.47.18-1.44.26-2.69.26-3.74,8.47.04,17.21.05,26.21.05l15.03-.05h7.96c-.18,1.41-.26,2.66-.26,3.74-4.25-.32-10.72-.47-19.41-.47h-3.06l-2.11,58.11c-.04.81-.05,1.62-.05,2.43v8.23c-.88-.03-1.67-.05-2.37-.05s-1.46.02-2.38.05Z"/>
      <path class="cls-9" d="m1094.4,442.98c.67-9.53,1.28-21.82,1.82-36.89.54-15.06.82-26.76.82-35.1,7.8.04,15.13.05,21.99.05l19.25-.05c-.14,1.41-.21,2.65-.21,3.74l-4.22-.35c-1.09-.12-2.99-.18-5.7-.2-2.71-.02-5.36-.03-7.96-.03-8.33,0-14.66.02-18.98.05l-1.06,30.27c5.31.1,10.18.16,14.61.16,5.27,0,11.78-.05,19.52-.16-.14,1.05-.23,2.21-.26,3.48l-19.9-.16c-2.32,0-7.04.05-14.15.16l-1.06,31.69,15.13.05c5.94,0,10.06-.03,12.36-.08s5.44-.18,9.41-.4c-.18,1.41-.26,2.65-.26,3.74-8.44-.03-14.61-.05-18.51-.05l-22.62.05Z"/>
      <path class="cls-9" d="m1150.99,442.98l.84-12.76,1.52-39.71.21-11.29.05-8.23,10.5.05,12.03-.05c4.99,0,8.63.66,10.92,1.98,2.28,1.32,4.09,3.2,5.41,5.64,1.32,2.44,1.98,5.25,1.98,8.41,0,3.94-.99,7.55-2.98,10.84-1.99,3.29-4.7,5.79-8.15,7.52s-7.4,2.58-11.87,2.58c-.56,0-1.41-.03-2.53-.11l25.23,35.12c-.88-.03-1.79-.05-2.73-.05s-1.89.02-2.73.05l-6.91-10.44-20.09-28.42c3.13.56,5.85.84,8.14.84,2.78,0,5.48-.38,8.08-1.14,2.61-.76,4.84-1.89,6.71-3.41,1.87-1.51,3.31-3.41,4.33-5.68s1.53-4.75,1.53-7.42c0-1.8-.25-3.47-.74-5.02s-1.28-2.91-2.38-4.09c-1.09-1.18-2.21-2.02-3.36-2.51-1.14-.49-2.61-.85-4.41-1.08s-3.7-.34-5.7-.34l-8.66.05c-1.9,0-4.33-.03-7.29-.11-1.16,27.83-1.83,50.75-2,68.77-.88-.03-1.71-.05-2.48-.05s-1.6.02-2.48.05Z"/>
    </g>
    <g>
      <path class="cls-1" d="m769.82,325.76h-46.74l-7.57-33.15h-47.48l-7.86,33.15h-45.85l52.52-198.47h50.45l52.52,198.47Zm-62.91-68.83c-6.73-29.53-11.77-57.63-15.13-84.29h-.59c-3.56,27.45-8.56,55.55-14.99,84.29h30.71Z"/>
      <path class="cls-7" d="m792.52,127.3h44.96v152.53h35.61v45.94h-80.56V127.3Z"/>
      <path class="cls-5" d="m903.5,127.3h45.7c26.61,0,45.75,5.23,57.42,15.69,11.67,10.46,17.51,23.76,17.51,39.92,0,17.45-8.51,31.47-25.52,42.07,19.29,7.63,28.93,22.15,28.93,43.56,0,17.15-5.99,30.97-17.95,41.48-11.97,10.51-27.75,15.76-47.33,15.76h-58.75V127.3Zm44.96,38.06v42.82c20.08-.49,30.12-7.48,30.12-20.96,0-8.03-2.4-13.63-7.2-16.8-4.8-3.17-12.44-4.85-22.92-5.06Zm0,78.79v42.97c11.37-.2,19.9-1.96,25.59-5.28,5.69-3.32,8.53-8.79,8.53-16.43,0-14.17-10.14-21.26-30.42-21.26h-3.71Z"/>
      <path class="cls-6" d="m1122.94,330.67c-23.94,0-42.19-9.19-54.75-27.58-12.56-18.38-18.84-44.92-18.84-79.61,0-32.01,6.31-56.96,18.92-74.85,12.61-17.89,30.19-26.83,52.75-26.83,24.04,0,42.41,8.97,55.12,26.91,12.71,17.94,19.07,43.56,19.07,76.86s-6.26,59.15-18.77,77.53c-12.51,18.39-30.34,27.58-53.49,27.58Zm-1.63-163.83c-16.22,0-24.33,19.08-24.33,57.23,0,24.58,2.05,40.98,6.16,49.21,4.1,8.23,10.06,12.34,17.88,12.34,8.41,0,14.86-4.11,19.36-12.34,4.5-8.23,6.75-24.33,6.75-48.32,0-38.75-8.61-58.13-25.82-58.13Z"/>
      <path class="cls-2" d="m1228.58,127.3h52.37c21.17,0,37.88,5.45,50.15,16.35,12.26,10.9,18.4,25.72,18.4,44.45,0,9.61-2.33,18.9-6.97,27.87-4.65,8.97-11.42,15.74-20.33,20.29l35.91,89.5h-47.48l-36.35-90.39h-.74v90.39h-44.96V127.3Zm44.96,38.36v47.13c19.88-.39,29.82-7.38,29.82-20.96,0-9.22-2.3-15.81-6.9-19.77-4.6-3.96-12.24-6.1-22.92-6.39Z"/>
      <path class="cls-4" d="m1522.06,325.76h-46.74l-7.57-33.15h-47.48l-7.86,33.15h-45.85l52.52-198.47h50.45l52.52,198.47Zm-62.91-68.83c-6.73-29.53-11.77-57.63-15.13-84.29h-.59c-3.56,27.45-8.56,55.55-14.98,84.29h30.71Z"/>
      <path class="cls-3" d="m1544.76,127.3h41.99c29.08,0,51.19,8.3,66.32,24.9,15.13,16.6,22.7,40.86,22.7,72.77,0,24.18-3.73,43.71-11.2,58.57-7.47,14.87-17.9,25.62-31.31,32.26-13.41,6.64-28.22,9.96-44.44,9.96h-44.07V127.3Zm44.96,42.22v113.88c13.65-1.19,23.29-6.02,28.93-14.49,5.64-8.47,8.46-22.42,8.46-41.85,0-11.5-.99-21.23-2.97-29.21-1.98-7.98-4.92-14.12-8.83-18.44-3.91-4.31-7.71-6.96-11.42-7.95-3.71-.99-8.43-1.63-14.17-1.93Z"/>
      <path class="cls-8" d="m1839.12,325.76h-46.74l-7.57-33.15h-47.48l-7.86,33.15h-45.85l52.52-198.47h50.45l52.52,198.47Zm-62.91-68.83c-6.73-29.53-11.77-57.63-15.13-84.29h-.59c-3.56,27.45-8.56,55.55-14.98,84.29h30.71Z"/>
    </g>
  </g>
</svg>