<?xml version="1.0" encoding="UTF-8"?>
<svg xmlns="http://www.w3.org/2000/svg" xmlns:xlink="http://www.w3.org/1999/xlink" viewBox="0 0 1839.77 544.38">
  <defs>
    <style>
      .cls-1 {
        fill: url(#Degradado_sin_nombre_1024-3);
      }

      .cls-1, .cls-2, .cls-3, .cls-4, .cls-5, .cls-6, .cls-7, .cls-8, .cls-9, .cls-10 {
        stroke-width: 0px;
      }

      .cls-2 {
        fill: url(#Degradado_sin_nombre_995-6);
      }

      .cls-3 {
        fill: url(#Degradado_sin_nombre_1024);
      }

      .cls-4 {
        fill: url(#Degradado_sin_nombre_995);
      }

      .cls-5 {
        fill: url(#Degradado_sin_nombre_995-5);
      }

      .cls-6 {
        fill: #475569;
      }

      .cls-7 {
        fill: url(#Degradado_sin_nombre_995-3);
      }

      .cls-8 {
        fill: url(#Degradado_sin_nombre_995-2);
      }

      .cls-9 {
        fill: url(#Degradado_sin_nombre_1024-2);
      }

      .cls-10 {
        fill: url(#Degradado_sin_nombre_995-4);
      }
    </style>
    <linearGradient id="Degradado_sin_nombre_995" data-name="Degradado sin nombre 995" x1="485.49" y1="-238.71" x2="872.36" y2="-238.71" gradientTransform="translate(-5.66 819.03) rotate(-50.76)" gradientUnits="userSpaceOnUse">
      <stop offset="0" stop-color="#d3dd1b"/>
      <stop offset=".5" stop-color="#e7da14"/>
      <stop offset="1" stop-color="#f8d90f"/>
    </linearGradient>
    <linearGradient id="Degradado_sin_nombre_995-2" data-name="Degradado sin nombre 995" x1="410.33" y1="-49.97" x2="797.33" y2="-49.97" xlink:href="#Degradado_sin_nombre_995"/>
    <linearGradient id="Degradado_sin_nombre_995-3" data-name="Degradado sin nombre 995" x1="657.92" y1="-151.4" x2="658.22" y2="-151.4" xlink:href="#Degradado_sin_nombre_995"/>
    <linearGradient id="Degradado_sin_nombre_995-4" data-name="Degradado sin nombre 995" x1="657.92" y1="-136.96" x2="658.22" y2="-136.96" xlink:href="#Degradado_sin_nombre_995"/>
    <linearGradient id="Degradado_sin_nombre_995-5" data-name="Degradado sin nombre 995" x1="657.92" y1="-186.87" x2="658.22" y2="-186.87" xlink:href="#Degradado_sin_nombre_995"/>
    <linearGradient id="Degradado_sin_nombre_995-6" data-name="Degradado sin nombre 995" x1="657.92" y1="-101.38" x2="658.22" y2="-101.38" xlink:href="#Degradado_sin_nombre_995"/>
    <linearGradient id="Degradado_sin_nombre_1024" data-name="Degradado sin nombre 1024" x1="57.11" y1="121.79" x2="461.47" y2="121.79" gradientUnits="userSpaceOnUse">
      <stop offset="0" stop-color="#0191ba"/>
      <stop offset="1" stop-color="#35bbca"/>
    </linearGradient>
    <linearGradient id="Degradado_sin_nombre_1024-2" data-name="Degradado sin nombre 1024" x1="351.07" y1="88.58" x2="442.75" y2="88.58" xlink:href="#Degradado_sin_nombre_1024"/>
    <linearGradient id="Degradado_sin_nombre_1024-3" data-name="Degradado sin nombre 1024" x1="328.08" y1="81.15" x2="384.54" y2="81.15" xlink:href="#Degradado_sin_nombre_1024"/>
  </defs>
  <g id="Capa_1" data-name="Capa 1">
    <g>
      <path class="cls-4" d="m57.3,243.57c-.02-7.11-.44-14.25.03-21.33.59-9.13,1.37-18.31,3-27.3,2.34-12.9,4.81-25.85,8.58-38.38,2.82-9.36,7.63-18.13,11.8-27.05,7.7-16.43,17.34-31.73,29.21-45.4,8.43-9.72,17.69-18.78,27.08-27.6,12.38-11.63,26.54-20.96,41.49-28.93,12.52-6.67,25.49-12.34,39.09-16.64,15.81-4.99,31.91-8.45,48.35-10.02,15.71-1.51,31.42-1.04,47.22.37,16,1.43,31.41,5.16,46.6,9.66,10.81,3.21,21.17,8.21,31.33,13.23,9.55,4.72,18.83,10.12,27.74,15.97,7,4.59,13.4,10.15,19.8,15.59,5.42,4.61,10.84,9.32,15.51,14.64,3.08,3.51,5.29,8.01,7,12.41,1.62,4.17-2.85,7.64-7.65,6.65-11.18-2.3-20.93-8.08-31.1-12.78-11.79-5.45-23.47-11.11-35.15-16.8-16.58-8.08-33.97-13.79-51.92-17.76-16.83-3.72-33.86-3.7-50.81-.71-7.56,1.33-15.09,3.1-22.46,5.28-12.54,3.72-24.13,9.38-34.83,17.12-13.76,9.96-24,22.57-30.76,38.05-2.62,5.99-.07,18.47,7.91,21.63,2.37.94,5.8,1.02,8.09.02,11.78-5.16,23.63-10.28,34.93-16.39,13.51-7.31,26.46-15.73,41.51-19.72,5.72-1.52,11.47-2.5,17.44-.55,6.36,2.08,9.82,8.81,7.76,15.22-2.21,6.91-6.72,12.24-11.22,17.62-15.53,18.57-34.6,32.33-56.79,41.9-20.29,8.75-41.75,13.17-63.29,17.35-14.77,2.87-29.68,5.17-44.24,8.87-16.59,4.21-32.54,10.26-46.94,20.06-13.91,9.46-24.65,21.63-34.32,35.73Z"/>
      <path class="cls-8" d="m519.3,218.31c.08,5.88.51,11.77.16,17.62-.56,9.46-.97,19.02-2.66,28.31-2.64,14.55-5.17,29.3-9.85,43.25-4.29,12.79-11.06,24.81-17.3,36.88-6.21,12.02-14.2,22.92-22.82,33.37-11.61,14.08-24.38,27.02-39.28,37.5-11.94,8.4-24.3,16.43-37.25,23.12-10.63,5.49-22.32,8.98-33.68,12.98-15.72,5.53-32.03,8.85-48.62,9.6-14.8.67-29.73.54-44.5-.54-15.05-1.1-29.89-4.32-44.27-9.15-11.56-3.89-23.15-7.72-33.77-13.88-10.95-6.36-22.34-12.13-32.61-19.45-12.23-8.71-24-18.26-33.25-30.34-1.76-2.3-3.15-5.12-3.9-7.91-1.28-4.74,2.11-8.3,6.97-7.04,6.23,1.62,12.41,3.7,18.33,6.23,7.58,3.24,14.85,7.2,22.31,10.74,12.35,5.87,24.64,11.88,37.15,17.37,6.85,3,14.09,5.15,21.21,7.5,5.39,1.78,10.77,3.82,16.33,4.77,8.58,1.48,17.28,2.41,25.97,3.06,11.91.89,23.65-.87,35.32-3.15,20.25-3.96,38.87-11.62,55-24.65,9.97-8.06,17.52-18.12,23.67-29.41,2.76-5.07,3.76-10.08,2.74-15.47-1.9-10.01-8.49-14-18.77-10.18-10.35,3.84-20.41,8.64-30.2,13.77-15.29,8.02-29.59,18.15-46.87,21.73-4.23.88-8.91.97-13.14.16-9.07-1.74-12.48-10.56-6.6-20.7,8.38-14.43,20.49-25.47,33.42-35.68,12.32-9.73,26.17-16.98,40.9-21.85,15.24-5.05,31.02-8.53,46.66-12.29,12.32-2.96,24.81-5.21,37.2-7.91,8.91-1.94,17.83-3.9,26.64-6.23,10.59-2.81,20.51-7.41,29.85-13.03,12.37-7.44,23.09-16.89,31.65-28.61,2.48-3.4,4.68-6.99,7.01-10.5.28,0,.57,0,.85,0Z"/>
      <path class="cls-7" d="m351.71,49.51c7.41,2.98,14.89,5.83,22.23,8.97,9.38,4.02,18.83,7.93,27.89,12.58,4.41,2.26,8.57,5.6,11.88,9.32,7.83,8.79,15.4,17.87,22.43,27.3,3.03,4.07,4.56,9.28,6.53,14.07.32.79-.36,2.4-1.08,3.13-3.55,3.61-8.15,2.82-12.44,2.28-9-1.13-16.53-5.68-23.48-11.18-12.07-9.56-21.83-21.33-31.17-33.43-7.52-9.74-14.71-19.73-22.02-29.63-.57-.77-.95-1.69-1.41-2.54.22-.29.43-.59.65-.88Z"/>
      <path class="cls-10" d="m225.98,412.45c-4.07-1.53-7.53-2.68-10.88-4.12-13.79-5.94-27.92-11.25-41.14-18.27-6.61-3.52-11.91-9.88-17.1-15.6-5.72-6.29-10.85-13.16-15.82-20.07-2.5-3.47-4.3-7.5-6.02-11.45-2.08-4.8-.03-8.11,5.32-8.45,9.53-.61,17.9,2.63,25.79,7.87,11.63,7.72,20.62,18.09,29.3,28.7,8.8,10.75,17.11,21.91,25.51,32.98,1.82,2.4,3.14,5.19,5.04,8.41Z"/>
      <path class="cls-5" d="m364.44,111.52c-10.75-9.43-17.7-18.9-22.86-29.65-3.86-8.04-7.46-16.21-10.88-24.45-1.29-3.11-1.88-6.55-2.55-9.89-.25-1.22.2-2.58.32-3.88,1.62.3,3.43.24,4.85.96,8.82,4.45,13.14,13.21,18.77,20.56,7.99,10.43,15.32,21.38,22.59,32.33,3.52,5.31,6.32,11.1,9.35,16.73,1.04,1.94.47,3.86-1.72,4.17-2.29.32-5.02.46-6.99-.49-4.45-2.13-8.56-4.99-10.88-6.39Z"/>
      <path class="cls-2" d="m249.42,417.92c-10.26.06-14.49-7.32-19.28-13.71-7.4-9.88-14.86-19.75-21.68-30.04-5.44-8.21-10.07-16.98-14.85-25.62-2.13-3.86-.37-6.55,3.86-5.34,4.71,1.34,9.41,3.56,13.39,6.41,11.45,8.22,19.02,19.73,25.1,32.2,3.77,7.72,7.22,15.62,10.37,23.62,1.53,3.88,2.05,8.16,3.08,12.48Z"/>
    </g>
  </g>
  <g id="Capa_1_copia" data-name="Capa 1 copia">
    <g>
      <path class="cls-3" d="m57.3,243.57c-.02-7.11-.44-14.25.03-21.33.59-9.13,1.37-18.31,3-27.3,2.34-12.9,4.81-25.85,8.58-38.38,2.82-9.36,7.63-18.13,11.8-27.05,7.7-16.43,17.34-31.73,29.21-45.4,8.43-9.72,17.69-18.78,27.08-27.6,12.38-11.63,26.54-20.96,41.49-28.93,12.52-6.67,25.49-12.34,39.09-16.64,15.81-4.99,31.91-8.45,48.35-10.02,15.71-1.51,31.42-1.04,47.22.37,16,1.43,31.41,5.16,46.6,9.66,10.81,3.21,21.17,8.21,31.33,13.23,9.55,4.72,18.83,10.12,27.74,15.97,7,4.59,13.4,10.15,19.8,15.59,5.42,4.61,10.84,9.32,15.51,14.64,3.08,3.51,5.29,8.01,7,12.41,1.62,4.17-2.85,7.64-7.65,6.65-11.18-2.3-20.93-8.08-31.1-12.78-11.79-5.45-23.47-11.11-35.15-16.8-16.58-8.08-33.97-13.79-51.92-17.76-16.83-3.72-33.86-3.7-50.81-.71-7.56,1.33-15.09,3.1-22.46,5.28-12.54,3.72-24.13,9.38-34.83,17.12-13.76,9.96-24,22.57-30.76,38.05-2.62,5.99-.07,18.47,7.91,21.63,2.37.94,5.8,1.02,8.09.02,11.78-5.16,23.63-10.28,34.93-16.39,13.51-7.31,26.46-15.73,41.51-19.72,5.72-1.52,11.47-2.5,17.44-.55,6.36,2.08,9.82,8.81,7.76,15.22-2.21,6.91-6.72,12.24-11.22,17.62-15.53,18.57-34.6,32.33-56.79,41.9-20.29,8.75-41.75,13.17-63.29,17.35-14.77,2.87-29.68,5.17-44.24,8.87-16.59,4.21-32.54,10.26-46.94,20.06-13.91,9.46-24.65,21.63-34.32,35.73Z"/>
      <path class="cls-9" d="m351.71,49.51c7.41,2.98,14.89,5.83,22.23,8.97,9.38,4.02,18.83,7.93,27.89,12.58,4.41,2.26,8.57,5.6,11.88,9.32,7.83,8.79,15.4,17.87,22.43,27.3,3.03,4.07,4.56,9.28,6.53,14.07.32.79-.36,2.4-1.08,3.13-3.55,3.61-8.15,2.82-12.44,2.28-9-1.13-16.53-5.68-23.48-11.18-12.07-9.56-21.83-21.33-31.17-33.43-7.52-9.74-14.71-19.73-22.02-29.63-.57-.77-.95-1.69-1.41-2.54.22-.29.43-.59.65-.88Z"/>
      <path class="cls-1" d="m364.44,111.52c-10.75-9.43-17.7-18.9-22.86-29.65-3.86-8.04-7.46-16.21-10.88-24.45-1.29-3.11-1.88-6.55-2.55-9.89-.25-1.22.2-2.58.32-3.88,1.62.3,3.43.24,4.85.96,8.82,4.45,13.14,13.21,18.77,20.56,7.99,10.43,15.32,21.38,22.59,32.33,3.52,5.31,6.32,11.1,9.35,16.73,1.04,1.94.47,3.86-1.72,4.17-2.29.32-5.02.46-6.99-.49-4.45-2.13-8.56-4.99-10.88-6.39Z"/>
    </g>
  </g>
  <g id="Capa_1_copia_2" data-name="Capa 1 copia 2">
    <g>
      <path class="cls-6" d="m696.18,211.05h-46.24l-7.2,19.63h-47.55l67.62-148.33h20.5l67.62,148.33h-47.55l-7.2-19.63Zm-12.22-32.72l-10.91-30.1-11.12,30.1h22.03Z"/>
      <path class="cls-6" d="m813.53,194.69h65.66v35.99h-106.45V84.53h40.79v110.16Z"/>
      <path class="cls-6" d="m1036.25,189.46c0,12.36-5.73,22.87-17.18,31.52-11.46,8.65-25.72,12.98-42.8,12.98-9.74,0-21.09-.69-34.03-2.07-12.94-1.38-23.05-2.87-30.32-4.47V84.53h70.22c13.06,0,24.58,3.83,34.56,11.5,9.98,7.66,14.97,17.5,14.97,29.5,0,13.77-6.59,23.59-19.77,29.46,7.58,2.96,13.53,7.01,17.86,12.12,4.33,5.11,6.49,12.56,6.49,22.35Zm-83.54-68.93v23.12h20.72c5.09,0,9.27-.97,12.54-2.92s4.91-4.72,4.91-8.33-1.67-6.49-5.02-8.64-7.49-3.23-12.43-3.23h-20.72Zm18.98,77.44c7.27,0,12.87-1.31,16.8-3.93,3.93-2.62,5.89-6.25,5.89-10.91,0-7.42-7.49-11.12-22.47-11.12h-19.2v23.34c5.38,1.75,11.71,2.62,18.98,2.62Z"/>
      <path class="cls-6" d="m1093.62,90.1c11.34-5.89,23.78-8.83,37.3-8.83s25.96,2.94,37.3,8.83,20.61,14.72,27.81,26.5,10.8,25.45,10.8,41.01-3.6,29.23-10.8,41.01-16.47,20.61-27.81,26.5-23.78,8.83-37.3,8.83-25.96-2.95-37.3-8.83-20.61-14.72-27.81-26.5c-7.2-11.78-10.8-25.45-10.8-41.01s3.6-29.23,10.8-41.01c7.2-11.78,16.47-20.61,27.81-26.5Zm61.62,40.25c-6.47-7.27-14.58-10.91-24.32-10.91s-17.85,3.64-24.32,10.91c-6.47,7.27-9.71,16.36-9.71,27.27s3.23,20,9.71,27.27c6.47,7.27,14.58,10.91,24.32,10.91s17.85-3.63,24.32-10.91c6.47-7.27,9.71-16.36,9.71-27.27s-3.24-19.99-9.71-27.27Z"/>
      <path class="cls-6" d="m1275.98,230.68h-40.79V84.53h62.6c16.14,0,30.1,4.44,41.88,13.31,11.78,8.87,17.67,21.38,17.67,37.52,0,10.47-3.02,19.34-9.05,26.61-6.04,7.27-14,12.29-23.89,15.05l41.23,53.66h-49.73l-39.92-58.24v58.24Zm0-107.98v27.27c5.67,2.04,11.6,3.05,17.78,3.05s11.34-1.31,15.49-3.93,6.22-6.58,6.22-11.89-1.96-9.05-5.89-11.23-9.45-3.27-16.58-3.27h-17.01Z"/>
      <path class="cls-6" d="m1470.99,211.05h-46.24l-7.2,19.63h-47.55l67.62-148.33h20.5l67.62,148.33h-47.55l-7.2-19.63Zm-12.21-32.72l-10.91-30.1-11.12,30.1h22.03Z"/>
      <path class="cls-6" d="m1547.55,84.53h59.55c13.67,0,26.29,2.73,37.85,8.18,11.56,5.45,21.09,13.85,28.58,25.19,7.49,11.34,11.23,24.58,11.23,39.7,0,21.96-6.83,40.17-20.5,54.64-13.67,14.47-31.7,21.71-54.1,21.71s-43.26-2.04-62.6-6.11V84.53Zm40.79,38.17v70.46c5.82,1.75,12.5,2.62,20.07,2.62,22.98,0,34.46-12,34.46-35.99,0-11.49-3.34-20.54-10.03-27.16-6.69-6.62-16-9.93-27.92-9.93h-16.58Z"/>
      <path class="cls-6" d="m1781.39,211.05h-46.24l-7.2,19.63h-47.55l67.62-148.33h20.5l67.62,148.33h-47.55l-7.2-19.63Zm-12.21-32.72l-10.91-30.1-11.12,30.1h22.03Z"/>
    </g>
    <g>
      <path class="cls-6" d="m624.01,291.58v19.77h30.97v15.25h-30.97v29.54h-16.92v-79.81h54.44v15.25h-37.52Z"/>
      <path class="cls-6" d="m701.56,295.99v60.16h-15.13v-47.29h-9.41v-12.86h24.54Zm-2.32-11.5c-1.95,1.95-4.29,2.92-7.03,2.92s-5.08-.97-7.03-2.92c-1.95-1.95-2.92-4.31-2.92-7.09s.95-5.12,2.86-7.03c1.91-1.91,4.25-2.86,7.03-2.86s5.14.97,7.09,2.92c1.94,1.95,2.92,4.29,2.92,7.03s-.97,5.08-2.92,7.03Z"/>
      <path class="cls-6" d="m739.88,294.44c3.43,0,6.68.51,9.77,1.52s5.5,2.3,7.26,3.86v13.24c-5.15-3.68-10.08-5.51-14.78-5.51-2.77,0-5,.62-6.7,1.86-1.7,1.24-2.55,2.78-2.55,4.61,0,2.8,2.29,4.92,6.87,6.35l6.65,2.28c8.65,2.72,12.98,8.03,12.98,15.94,0,5.49-2.18,10.09-6.54,13.79-4.36,3.7-9.67,5.55-15.94,5.55-3.96,0-7.93-.62-11.89-1.85-3.96-1.23-7.1-2.64-9.41-4.23v-13.26c2.49,1.68,5.6,3.14,9.33,4.38,3.73,1.24,7.05,1.86,9.95,1.86,6.24,0,9.36-2.08,9.36-6.23,0-1.44-.59-2.6-1.78-3.48-1.19-.88-3.24-1.8-6.16-2.76l-7.57-2.64c-8.52-2.72-12.78-8.19-12.78-16.42,0-5.58,2.22-10.12,6.65-13.61,4.44-3.5,10.19-5.25,17.25-5.25Z"/>
      <path class="cls-6" d="m793.52,295.99v60.16h-15.13v-47.29h-9.41v-12.86h24.54Zm-2.32-11.5c-1.95,1.95-4.29,2.92-7.03,2.92s-5.08-.97-7.03-2.92c-1.95-1.95-2.92-4.31-2.92-7.09s.95-5.12,2.86-7.03c1.91-1.91,4.25-2.86,7.03-2.86s5.14.97,7.09,2.92c1.94,1.95,2.92,4.29,2.92,7.03s-.97,5.08-2.92,7.03Z"/>
      <path class="cls-6" d="m817.34,303.67c6.59-6.15,14.28-9.23,23.08-9.23s16.51,3.08,23.14,9.23c6.63,6.16,9.94,13.66,9.94,22.51s-3.31,16.36-9.94,22.51c-6.63,6.16-14.34,9.23-23.14,9.23s-16.49-3.08-23.08-9.23c-6.59-6.15-9.88-13.66-9.88-22.51s3.29-16.36,9.88-22.51Zm34.56,10.07c-3.13-3.1-6.96-4.65-11.47-4.65s-8.32,1.55-11.41,4.65c-3.09,3.1-4.64,7.27-4.64,12.51s1.55,9.39,4.64,12.45c3.09,3.06,6.9,4.59,11.41,4.59s8.34-1.53,11.47-4.59c3.13-3.06,4.7-7.21,4.7-12.45s-1.57-9.41-4.7-12.51Z"/>
      <path class="cls-6" d="m914.42,294.44c6.67,0,12.59,2.11,17.75,6.31v13.94c-5-3.57-10.15-5.36-15.43-5.36s-9.57,1.63-12.87,4.88c-3.3,3.26-4.94,7.33-4.94,12.21s1.59,8.92,4.76,12.09c3.18,3.18,7.48,4.76,12.92,4.76s10.62-1.75,15.54-5.24v13.82c-4.76,4.05-10.68,6.08-17.75,6.08-8.9,0-16.52-3.12-22.87-9.35-6.35-6.23-9.53-13.66-9.53-22.28s3.18-16.08,9.53-22.39c6.35-6.31,13.98-9.47,22.87-9.47Z"/>
      <path class="cls-6" d="m999.48,324.34v6.31h-43.6c.87,4.13,2.9,7.42,6.08,9.89,3.18,2.46,7.38,3.69,12.63,3.69s11-2.03,17.27-6.08v13.7c-5.4,4.05-11.71,6.08-18.94,6.08-8.97,0-16.6-2.96-22.87-8.88-6.27-5.92-9.41-13.32-9.41-22.22s2.96-16.52,8.88-22.87c5.92-6.35,13.18-9.53,21.8-9.53s15.46,2.76,20.55,8.28c5.08,5.52,7.62,12.73,7.62,21.62Zm-19.06-12.87c-2.7-2.22-5.94-3.33-9.71-3.33s-6.93,1.15-9.47,3.45c-2.54,2.3-4.25,5.44-5.12,9.41h28.83c-.32-4.13-1.83-7.3-4.53-9.53Z"/>
      <path class="cls-6" d="m1046.11,294.44c6.71,0,12.07,2.14,16.08,6.43,4.01,4.29,6.02,10.4,6.02,18.34v36.93h-15.13l-.12-34.99c0-3.98-.95-6.99-2.86-9.02-1.91-2.03-4.61-3.05-8.1-3.05-4.76,0-9.29,2.95-13.58,8.84v38.21h-15.13v-60.16h15.13v8.5c5.08-6.7,10.98-10.05,17.69-10.05Z"/>
      <path class="cls-6" d="m1105.61,295.99h16.68v12.86h-16.68v25.79c0,5.76,2.46,8.64,7.39,8.64,3.57,0,6.87-.91,9.89-2.72v12.01c-3.57,3.57-8.18,5.36-13.82,5.36s-10.15-1.74-13.52-5.22c-3.38-3.48-5.06-8.18-5.06-14.11v-29.75h-10.84v-7.74c4.13-1.43,7.94-4.07,11.44-7.92,3.49-3.85,6.15-8.67,7.98-14.47h6.55v17.27Z"/>
      <path class="cls-6" d="m1192.45,324.34v6.31h-43.6c.87,4.13,2.9,7.42,6.08,9.89s7.39,3.69,12.63,3.69,11-2.03,17.27-6.08v13.7c-5.4,4.05-11.71,6.08-18.94,6.08-8.97,0-16.6-2.96-22.87-8.88-6.27-5.92-9.41-13.32-9.41-22.22s2.96-16.52,8.87-22.87c5.92-6.35,13.18-9.53,21.8-9.53s15.46,2.76,20.55,8.28c5.08,5.52,7.62,12.73,7.62,21.62Zm-19.06-12.87c-2.7-2.22-5.94-3.33-9.71-3.33s-6.93,1.15-9.47,3.45c-2.54,2.3-4.25,5.44-5.12,9.41h28.83c-.32-4.13-1.83-7.3-4.53-9.53Z"/>
      <path class="cls-6" d="m1238.31,294.79c2.54,0,4.92.55,7.15,1.66v16.95c-2.86-2-5.96-3-9.29-3-5.64,0-10.56,3.96-14.77,11.89v33.86h-15.13v-60.16h15.13v11.04c4.84-8.16,10.48-12.23,16.92-12.23Z"/>
    </g>
  </g>
</svg>